<mxfile host="app.diagrams.net" agent="Mozilla/5.0 (X11; Linux x86_64; rv:132.0) Gecko/20100101 Firefox/132.0" version="25.0.3">
  <diagram name="Page-1" id="c4acf3e9-155e-7222-9cf6-157b1a14988f">
    <mxGraphModel dx="851" dy="-354" grid="1" gridSize="10" guides="1" tooltips="1" connect="1" arrows="1" fold="1" page="1" pageScale="1" pageWidth="850" pageHeight="1100" background="none" math="0" shadow="0">
      <root>
        <mxCell id="0" />
        <mxCell id="1" parent="0" />
        <mxCell id="96XQ_ka_V2U2jA2UZsrP-2" value="&lt;h2&gt;QUELLSYSTEME&lt;/h2&gt;" style="rounded=0;whiteSpace=wrap;html=1;" vertex="1" parent="1">
          <mxGeometry x="200" y="2040" width="400" height="100" as="geometry" />
        </mxCell>
        <mxCell id="96XQ_ka_V2U2jA2UZsrP-3" value="&lt;h2&gt;STREAM PROCESSING SYSTEMS&lt;br&gt;&lt;/h2&gt;" style="rounded=0;whiteSpace=wrap;html=1;" vertex="1" parent="1">
          <mxGeometry x="200" y="1880" width="200" height="100" as="geometry" />
        </mxCell>
        <mxCell id="96XQ_ka_V2U2jA2UZsrP-4" value="&lt;h2&gt;DATENHALTUNG&lt;br&gt;&lt;/h2&gt;" style="rounded=0;whiteSpace=wrap;html=1;" vertex="1" parent="1">
          <mxGeometry x="200" y="1720" width="400" height="100" as="geometry" />
        </mxCell>
        <mxCell id="96XQ_ka_V2U2jA2UZsrP-5" value="&lt;h2&gt;PRÃ„SENTATIONS- UND ANWENDUNGSSCHICHT&lt;br&gt;&lt;/h2&gt;" style="rounded=0;whiteSpace=wrap;html=1;" vertex="1" parent="1">
          <mxGeometry x="200" y="1560" width="400" height="100" as="geometry" />
        </mxCell>
        <mxCell id="96XQ_ka_V2U2jA2UZsrP-6" value="" style="endArrow=classic;html=1;rounded=0;entryX=0.75;entryY=1;entryDx=0;entryDy=0;" edge="1" parent="1" target="96XQ_ka_V2U2jA2UZsrP-4">
          <mxGeometry width="50" height="50" relative="1" as="geometry">
            <mxPoint x="500" y="2040" as="sourcePoint" />
            <mxPoint x="550" y="1990" as="targetPoint" />
          </mxGeometry>
        </mxCell>
        <mxCell id="96XQ_ka_V2U2jA2UZsrP-7" value="" style="endArrow=classic;html=1;rounded=0;exitX=0.397;exitY=0.012;exitDx=0;exitDy=0;exitPerimeter=0;entryX=0.792;entryY=0.988;entryDx=0;entryDy=0;entryPerimeter=0;" edge="1" parent="1" source="96XQ_ka_V2U2jA2UZsrP-2" target="96XQ_ka_V2U2jA2UZsrP-3">
          <mxGeometry width="50" height="50" relative="1" as="geometry">
            <mxPoint x="370.00000000000006" y="2032.3" as="sourcePoint" />
            <mxPoint x="360" y="1990" as="targetPoint" />
            <Array as="points" />
          </mxGeometry>
        </mxCell>
        <mxCell id="96XQ_ka_V2U2jA2UZsrP-8" value="" style="endArrow=classic;html=1;rounded=0;entryX=0.399;entryY=1.006;entryDx=0;entryDy=0;entryPerimeter=0;exitX=0.802;exitY=-0.003;exitDx=0;exitDy=0;exitPerimeter=0;" edge="1" parent="1" source="96XQ_ka_V2U2jA2UZsrP-3" target="96XQ_ka_V2U2jA2UZsrP-4">
          <mxGeometry width="50" height="50" relative="1" as="geometry">
            <mxPoint x="360" y="1860" as="sourcePoint" />
            <mxPoint x="440" y="1850" as="targetPoint" />
            <Array as="points" />
          </mxGeometry>
        </mxCell>
        <mxCell id="96XQ_ka_V2U2jA2UZsrP-10" value="" style="endArrow=classic;html=1;rounded=0;exitX=0.75;exitY=0;exitDx=0;exitDy=0;entryX=0.75;entryY=1;entryDx=0;entryDy=0;" edge="1" parent="1">
          <mxGeometry width="50" height="50" relative="1" as="geometry">
            <mxPoint x="399.31" y="1720" as="sourcePoint" />
            <mxPoint x="399.31" y="1660" as="targetPoint" />
          </mxGeometry>
        </mxCell>
      </root>
    </mxGraphModel>
  </diagram>
</mxfile>
